P3
#testesupremo
5 5
255

102 124 100 123 213 107 189 123 100 32 127 10 128 120 122
102 124 100 123 213 107 189 123 100 32 127 10 128 120 122
102 124 100 123 213 107 189 123 100 32 127 10 128 120 122
102 124 100 123 213 107 189 123 100 32 127 10 128 120 122
102 124 100 123 213 107 189 123 100 32 127 10 128 120 122
